<svg xmlns="http://www.w3.org/2000/svg" width="20.513" height="20" viewBox="0 0 20.513 20">
  <path id="Icon_simple-adobeaftereffects" data-name="Icon simple-adobeaftereffects" d="M0,.45v20H20.513V.45ZM.855,1.3h18.8V19.6H.855ZM5.8,11.775l-.677,2.552c-.015.071-.043.1-.126.1H3.74c-.085,0-.1-.03-.085-.128l2.427-8.49a2.53,2.53,0,0,0,.084-.7c0-.056.028-.085.071-.085H8.028c.056,0,.085.015.1.085l2.721,9.205c.014.07,0,.111-.071.111H9.367c-.07,0-.111-.026-.126-.082l-.705-2.566H5.8Zm2.4-1.388C7.957,9.441,7.376,7.37,7.166,6.37H7.152c-.183,1-.646,2.691-1,4.017Zm4.581.875a1.713,1.713,0,0,0,1.862,1.932,3.3,3.3,0,0,0,1.393-.265c.057-.027.1-.013.1.057v1.072a.186.186,0,0,1-.085.171,3.806,3.806,0,0,1-1.718.325c-2.256,0-3.1-1.664-3.1-3.526,0-2.017,1.044-3.667,2.878-3.667a2.553,2.553,0,0,1,2.51,2.835,4.166,4.166,0,0,1-.073.9.119.119,0,0,1-.113.109A12.059,12.059,0,0,1,15,11.265H12.778Zm1.735-1.175a4.727,4.727,0,0,0,.634-.014c0-.058.015-.107.015-.149A1.194,1.194,0,0,0,14.045,8.6c-.818,0-1.171.72-1.255,1.48h1.721Z" transform="translate(0 -0.45)"/>
</svg>
