<svg xmlns="http://www.w3.org/2000/svg" width="42.105" height="16.168" viewBox="0 0 42.105 16.168">
  <path id="Icon_simple-aboutme" data-name="Icon simple-aboutme" d="M34.274,14.162a4.024,4.024,0,0,0-4.026,3.711h8.084a3.987,3.987,0,0,0-4.058-3.711M30.311,20.5a4.3,4.3,0,0,0,4.439,3.455,6.225,6.225,0,0,0,4.184-1.587l2.061,2.379a9.186,9.186,0,0,1-6.561,2.505,7.94,7.94,0,0,1-8.245-8.084,7.9,7.9,0,0,1,8.021-8.084,7.8,7.8,0,0,1,7.895,8.084V20.5ZM18.926,27.22V17.238c0-1.711-.758-2.695-2.342-2.695a4.1,4.1,0,0,0-3.013,1.747V27.222H9.447V17.238c0-1.711-.726-2.695-2.311-2.695a4.038,4.038,0,0,0-3.013,1.747V27.222H0V11.288H4.124v2.018a6.237,6.237,0,0,1,4.755-2.216,4.155,4.155,0,0,1,4.342,2.789,6.211,6.211,0,0,1,5.105-2.789c2.982,0,4.724,1.776,4.724,5.2V27.222H18.921Z" transform="translate(0 -11.088)" fill="#acacac"/>
</svg>
