<svg xmlns="http://www.w3.org/2000/svg" width="20.513" height="20" viewBox="0 0 20.513 20">
  <path id="Icon_simple-adobeillustrator" data-name="Icon simple-adobeillustrator" d="M0,.45v20H20.513V.45ZM.855,1.3h18.8V19.6H.855Zm6.261,10.47-.677,2.562c-.015.071-.043.087-.126.087H5.057c-.085,0-.1-.028-.085-.126L7.4,5.8a2.637,2.637,0,0,0,.084-.712c0-.056.028-.085.071-.085H9.345c.056,0,.085.015.1.085l2.722,9.226c.015.071,0,.113-.071.113h-1.41c-.071,0-.113-.017-.126-.074l-.705-2.577H7.113ZM9.5,10.386c-.239-.945-.8-3.015-1.015-4.017H8.468c-.183,1-.634,2.692-.987,4.017Zm3.846-4.75a.874.874,0,1,1,1.749,0,.819.819,0,0,1-.889.874.8.8,0,0,1-.863-.874Zm.1,1.944c0-.068.028-.094.1-.094h1.342c.075,0,.1.028.1.1v6.748c0,.071-.014.1-.1.1H13.561c-.085,0-.114-.043-.114-.111V7.578Z" transform="translate(0 -0.45)"/>
</svg>
