<svg xmlns="http://www.w3.org/2000/svg" width="43.723" height="34" viewBox="0 0 43.723 34">
  <path id="Icon_awesome-home" data-name="Icon awesome-home" d="M21.281,11.074,7.287,22.6V35.039A1.214,1.214,0,0,0,8.5,36.254l8.506-.022a1.214,1.214,0,0,0,1.208-1.214V27.753a1.214,1.214,0,0,1,1.214-1.214h4.858A1.214,1.214,0,0,1,25.5,27.753v7.259a1.214,1.214,0,0,0,1.214,1.218l8.5.024a1.214,1.214,0,0,0,1.214-1.214V22.591L22.442,11.074A.925.925,0,0,0,21.281,11.074Zm22.1,7.834-6.345-5.23V3.164a.911.911,0,0,0-.911-.911h-4.25a.911.911,0,0,0-.911.911V8.676l-6.8-5.591a3.643,3.643,0,0,0-4.63,0L.329,18.908a.911.911,0,0,0-.121,1.283l1.935,2.353a.911.911,0,0,0,1.283.124L21.281,7.962a.925.925,0,0,1,1.161,0L40.3,22.667a.911.911,0,0,0,1.283-.121l1.935-2.353a.911.911,0,0,0-.129-1.285Z" transform="translate(0.001 -2.254)" fill="#acacac"/>
</svg>
