<svg xmlns="http://www.w3.org/2000/svg" width="41.556" height="33.239" viewBox="0 0 41.556 33.239">
  <path id="Icon_awesome-code" data-name="Icon awesome-code" d="M18.108,33.21l-3.96-1.149a.78.78,0,0,1-.532-.967L22.477.565a.78.78,0,0,1,.967-.532L27.4,1.182a.78.78,0,0,1,.532.967L19.075,32.677a.778.778,0,0,1-.967.532Zm-7.4-7.285,2.824-3.013a.779.779,0,0,0-.052-1.117L7.6,16.621l5.882-5.175a.774.774,0,0,0,.052-1.117L10.706,7.317a.78.78,0,0,0-1.1-.032L.247,16.05a.774.774,0,0,0,0,1.136L9.6,25.957a.774.774,0,0,0,1.1-.032Zm21.244.039,9.356-8.771a.774.774,0,0,0,0-1.136L31.95,7.278a.786.786,0,0,0-1.1.032l-2.824,3.013a.779.779,0,0,0,.052,1.117l5.882,5.181L28.074,21.8a.774.774,0,0,0-.052,1.117l2.824,3.013a.78.78,0,0,0,1.1.039Z" transform="translate(0.002 -0.003)" fill="#acacac"/>
</svg>
